999
"DXF R12 Output" (www.mydxf.blogspot.com)
 0 
SECTION
 2 
HEADER
 9 
$ACADVER
 1 
AC1009
 9 
$EXTMIN
 10 
 0 
 20 
 0 
 9 
$EXTMAX
 10 
 8.5 
 20 
 11 
 0 
ENDSEC
 0 
SECTION
 2 
ENTITIES
0
LINE
8
Layer 1
10
10811.400000
20
3477.820000
11
-944.033000
21
780.344000
0
LINE
8
Layer 1
10
78.343300
20
21.274200
11
78.521077
21
21.432120
0
LINE
8
Layer 1
10
3.266760
20
21.844100
11
3.424695
21
21.666611
0
LINE
8
Layer 1
10
3.420880
20
38.550100
11
3.266723
21
38.367305
0
LINE
8
Layer 1
10
78.521000
20
38.409100
11
78.374047
21
38.600297
0
LINE
8
Layer 1
10
48.222200
20
45.401700
11
78.374100
21
38.600290
0
LINE
8
Layer 1
10
33.279600
20
45.401700
11
48.222200
21
45.401700
0
LINE
8
Layer 1
10
3.266760
20
21.844800
11
3.266760
21
38.367300
0
LINE
8
Layer 1
10
40.575600
20
17.436900
11
3.425180
21
21.667000
0
LINE
8
Layer 1
10
78.343300
20
21.274200
11
40.575600
21
17.436900
0
LINE
8
Layer 1
10
78.521000
20
38.408900
11
78.521000
21
21.432600
0
LINE
8
Layer 1
10
-1004.710000
20
-1015.720000
11
-1004.724393
21
708.370000
0
LINE
8
Layer 1
10
28623.000000
20
-1014.310000
11
28623.000000
21
733.777000
0
LINE
8
Layer 1
10
28552.400000
20
-1086.550000
11
28556.051496
21
-1086.386464
0
LINE
8
Layer 1
10
28556.051496
20
-1086.386464
11
28559.652787
21
-1086.044323
0
LINE
8
Layer 1
10
28559.652787
20
-1086.044323
11
28563.199559
21
-1085.527976
0
LINE
8
Layer 1
10
28563.199559
20
-1085.527976
11
28566.687501
21
-1084.841825
0
LINE
8
Layer 1
10
28566.687501
20
-1084.841825
11
28570.112299
21
-1083.990270
0
LINE
8
Layer 1
10
28570.112299
20
-1083.990270
11
28573.469641
21
-1082.977712
0
LINE
8
Layer 1
10
28573.469641
20
-1082.977712
11
28576.755215
21
-1081.808550
0
LINE
8
Layer 1
10
28576.755215
20
-1081.808550
11
28579.964707
21
-1080.487187
0
LINE
8
Layer 1
10
28579.964707
20
-1080.487187
11
28583.093806
21
-1079.018021
0
LINE
8
Layer 1
10
28583.093806
20
-1079.018021
11
28586.138199
21
-1077.405455
0
LINE
8
Layer 1
10
28586.138199
20
-1077.405455
11
28589.093572
21
-1075.653888
0
LINE
8
Layer 1
10
28589.093572
20
-1075.653888
11
28591.955615
21
-1073.767720
0
LINE
8
Layer 1
10
28591.955615
20
-1073.767720
11
28594.720013
21
-1071.751353
0
LINE
8
Layer 1
10
28594.720013
20
-1071.751353
11
28597.382455
21
-1069.609188
0
LINE
8
Layer 1
10
28597.382455
20
-1069.609188
11
28599.938628
21
-1067.345623
0
LINE
8
Layer 1
10
28599.938628
20
-1067.345623
11
28602.384219
21
-1064.965061
0
LINE
8
Layer 1
10
28602.384219
20
-1064.965061
11
28604.714915
21
-1062.471902
0
LINE
8
Layer 1
10
28604.714915
20
-1062.471902
11
28606.926405
21
-1059.870545
0
LINE
8
Layer 1
10
28606.926405
20
-1059.870545
11
28609.014376
21
-1057.165393
0
LINE
8
Layer 1
10
28609.014376
20
-1057.165393
11
28610.974514
21
-1054.360844
0
LINE
8
Layer 1
10
28610.974514
20
-1054.360844
11
28612.802508
21
-1051.461301
0
LINE
8
Layer 1
10
28612.802508
20
-1051.461301
11
28614.494044
21
-1048.471163
0
LINE
8
Layer 1
10
28614.494044
20
-1048.471163
11
28616.044811
21
-1045.394831
0
LINE
8
Layer 1
10
28616.044811
20
-1045.394831
11
28617.450496
21
-1042.236705
0
LINE
8
Layer 1
10
28617.450496
20
-1042.236705
11
28618.706786
21
-1039.001186
0
LINE
8
Layer 1
10
28618.706786
20
-1039.001186
11
28619.809368
21
-1035.692675
0
LINE
8
Layer 1
10
28619.809368
20
-1035.692675
11
28620.753930
21
-1032.315573
0
LINE
8
Layer 1
10
28620.753930
20
-1032.315573
11
28621.536160
21
-1028.874278
0
LINE
8
Layer 1
10
28621.536160
20
-1028.874278
11
28622.151744
21
-1025.373194
0
LINE
8
Layer 1
10
28622.151744
20
-1025.373194
11
28622.596370
21
-1021.816719
0
LINE
8
Layer 1
10
28622.596370
20
-1021.816719
11
28622.865727
21
-1018.209254
0
LINE
8
Layer 1
10
28622.865727
20
-1018.209254
11
28622.955500
21
-1014.555200
0
LINE
8
Layer 1
10
-932.461000
20
-1086.550000
11
28552.400000
21
-1086.550000
0
LINE
8
Layer 1
10
-1004.710000
20
-1015.980000
11
-1004.547165
21
-1019.632045
0
LINE
8
Layer 1
10
-1004.547165
20
-1019.632045
11
-1004.205665
21
-1023.233899
0
LINE
8
Layer 1
10
-1004.205665
20
-1023.233899
11
-1003.689904
21
-1026.781248
0
LINE
8
Layer 1
10
-1003.689904
20
-1026.781248
11
-1003.004283
21
-1030.269776
0
LINE
8
Layer 1
10
-1003.004283
20
-1030.269776
11
-1002.153203
21
-1033.695170
0
LINE
8
Layer 1
10
-1002.153203
20
-1033.695170
11
-1001.141066
21
-1037.053115
0
LINE
8
Layer 1
10
-1001.141066
20
-1037.053115
11
-999.972274
21
-1040.339296
0
LINE
8
Layer 1
10
-999.972274
20
-1040.339296
11
-998.651230
21
-1043.549398
0
LINE
8
Layer 1
10
-998.651230
20
-1043.549398
11
-997.182334
21
-1046.679106
0
LINE
8
Layer 1
10
-997.182334
20
-1046.679106
11
-995.569989
21
-1049.724106
0
LINE
8
Layer 1
10
-995.569989
20
-1049.724106
11
-993.818597
21
-1052.680084
0
LINE
8
Layer 1
10
-993.818597
20
-1052.680084
11
-991.932558
21
-1055.542723
0
LINE
8
Layer 1
10
-991.932558
20
-1055.542723
11
-989.916276
21
-1058.307711
0
LINE
8
Layer 1
10
-989.916276
20
-1058.307711
11
-987.774152
21
-1060.970731
0
LINE
8
Layer 1
10
-987.774152
20
-1060.970731
11
-985.510588
21
-1063.527470
0
LINE
8
Layer 1
10
-985.510588
20
-1063.527470
11
-983.129985
21
-1065.973613
0
LINE
8
Layer 1
10
-983.129985
20
-1065.973613
11
-980.636745
21
-1068.304845
0
LINE
8
Layer 1
10
-980.636745
20
-1068.304845
11
-978.035271
21
-1070.516850
0
LINE
8
Layer 1
10
-978.035271
20
-1070.516850
11
-975.329964
21
-1072.605316
0
LINE
8
Layer 1
10
-975.329964
20
-1072.605316
11
-972.525226
21
-1074.565926
0
LINE
8
Layer 1
10
-972.525226
20
-1074.565926
11
-969.625458
21
-1076.394366
0
LINE
8
Layer 1
10
-969.625458
20
-1076.394366
11
-966.635063
21
-1078.086322
0
LINE
8
Layer 1
10
-966.635063
20
-1078.086322
11
-963.558442
21
-1079.637479
0
LINE
8
Layer 1
10
-963.558442
20
-1079.637479
11
-960.399997
21
-1081.043522
0
LINE
8
Layer 1
10
-960.399997
20
-1081.043522
11
-957.164131
21
-1082.300136
0
LINE
8
Layer 1
10
-957.164131
20
-1082.300136
11
-953.855244
21
-1083.403007
0
LINE
8
Layer 1
10
-953.855244
20
-1083.403007
11
-950.477738
21
-1084.347820
0
LINE
8
Layer 1
10
-950.477738
20
-1084.347820
11
-947.036017
21
-1085.130260
0
LINE
8
Layer 1
10
-947.036017
20
-1085.130260
11
-943.534480
21
-1085.746013
0
LINE
8
Layer 1
10
-943.534480
20
-1085.746013
11
-939.977531
21
-1086.190764
0
LINE
8
Layer 1
10
-939.977531
20
-1086.190764
11
-936.369570
21
-1086.460198
0
LINE
8
Layer 1
10
-936.369570
20
-1086.460198
11
-932.715000
21
-1086.550000
0
LINE
8
Layer 1
10
10811.400000
20
3477.820000
11
-944.033000
21
780.344000
0
LINE
8
Layer 1
10
-196.825000
20
107.294000
11
-196.979158
21
107.111205
0
LINE
8
Layer 1
10
-121.724000
20
107.153000
11
-121.870953
21
107.344197
0
LINE
8
Layer 1
10
-152.023000
20
114.145000
11
-121.871100
21
107.343590
0
LINE
8
Layer 1
10
-166.966000
20
114.145000
11
-152.023000
21
114.145000
0
LINE
8
Layer 1
10
109.173000
20
97.709200
11
109.066978
21
97.576656
0
LINE
8
Layer 1
10
130.144000
20
91.558700
11
130.282495
21
91.697202
0
LINE
8
Layer 1
10
109.066000
20
91.342400
11
109.204495
21
91.203898
0
LINE
8
Layer 1
10
126.029000
20
98.150100
11
128.846200
21
97.519277
0
LINE
8
Layer 1
10
111.090000
20
98.150100
11
126.029000
21
98.150100
0
LINE
8
Layer 1
10
109.173000
20
97.709200
11
111.090560
21
98.150059
0
LINE
8
Layer 1
10
109.066000
20
91.342200
11
109.066847
21
97.576590
0
LINE
8
Layer 1
10
110.918000
20
91.203900
11
109.205000
21
91.203900
0
LINE
8
Layer 1
10
111.180000
20
90.942200
11
110.918352
21
91.203848
0
LINE
8
Layer 1
10
125.689000
20
90.942200
11
111.180000
21
90.942200
0
LINE
8
Layer 1
10
126.305000
20
91.558700
11
125.688514
21
90.942214
0
LINE
8
Layer 1
10
130.144000
20
91.558700
11
126.305000
21
91.558700
0
LINE
8
Layer 1
10
130.284000
20
96.060500
11
130.282589
21
91.697070
0
LINE
8
Layer 1
10
128.846000
20
97.519300
11
130.283270
21
96.060520
0
LINE
8
Layer 1
10
132.074000
20
68.458500
11
125.429570
21
69.042728
0
LINE
8
Layer 1
10
136.758000
20
68.333100
11
132.073430
21
68.458548
0
LINE
8
Layer 1
10
146.647000
20
69.196900
11
136.758140
21
68.333103
0
LINE
8
Layer 1
10
125.536000
20
77.196900
11
125.429978
21
77.064356
0
LINE
8
Layer 1
10
142.393000
20
77.637700
11
145.210200
21
77.006877
0
LINE
8
Layer 1
10
127.454000
20
77.637700
11
142.393000
21
77.637700
0
LINE
8
Layer 1
10
125.536000
20
77.196900
11
127.453560
21
77.637759
0
LINE
8
Layer 1
10
125.429000
20
69.042800
11
125.429847
21
77.064280
0
LINE
8
Layer 1
10
146.647000
20
75.548100
11
146.647000
21
69.196900
0
LINE
8
Layer 1
10
145.210000
20
77.006900
11
146.647270
21
75.548120
0
LINE
8
Layer 1
10
127.024000
20
68.904400
11
132.084920
21
68.461390
0
LINE
8
Layer 1
10
136.758000
20
68.334500
11
141.818920
21
68.777510
0
LINE
8
Layer 1
10
46.955000
20
53.405300
11
76.728900
21
53.406993
0
LINE
8
Layer 1
10
46.345700
20
52.796000
11
46.955017
21
53.405317
0
LINE
8
Layer 1
10
31.636000
20
52.796000
11
46.345700
21
52.796000
0
LINE
8
Layer 1
10
31.381500
20
53.019600
11
31.635980
21
52.795945
0
LINE
8
Layer 1
10
3.302770
20
52.208200
11
7.252580
21
52.208200
0
LINE
8
Layer 1
10
7.252580
20
52.208200
11
7.252580
21
48.258400
0
LINE
8
Layer 1
10
7.252580
20
48.258400
11
3.302770
21
48.258400
0
LINE
8
Layer 1
10
3.302770
20
48.258400
11
3.302770
21
52.208200
0
LINE
8
Layer 1
10
8.947200
20
48.258400
11
8.947200
21
52.208200
0
LINE
8
Layer 1
10
12.897700
20
48.258400
11
8.947200
21
48.258400
0
LINE
8
Layer 1
10
12.897700
20
52.208200
11
12.897700
21
48.258400
0
LINE
8
Layer 1
10
8.947200
20
52.208200
11
12.897700
21
52.208200
0
LINE
8
Layer 1
10
15.673300
20
52.254100
11
19.609490
21
51.909298
0
LINE
8
Layer 1
10
19.609500
20
51.909300
11
19.265415
21
47.973830
0
LINE
8
Layer 1
10
19.265400
20
47.973800
11
15.329210
21
48.318602
0
LINE
8
Layer 1
10
15.329300
20
48.318600
11
15.673385
21
52.254070
0
LINE
8
Layer 1
10
20.684800
20
47.849800
11
21.029602
21
51.785270
0
LINE
8
Layer 1
10
24.621000
20
47.505700
11
20.684810
21
47.849785
0
LINE
8
Layer 1
10
24.965800
20
51.441900
11
24.620998
21
47.505710
0
LINE
8
Layer 1
10
21.029600
20
51.785200
11
24.965790
21
51.441832
0
LINE
8
Layer 1
10
26.385100
20
51.317100
11
30.321290
21
50.973015
0
LINE
8
Layer 1
10
30.321300
20
50.973100
11
29.977215
21
47.036910
0
LINE
8
Layer 1
10
29.977200
20
47.036900
11
26.041010
21
47.380985
0
LINE
8
Layer 1
10
26.041100
20
47.380900
11
26.385185
21
51.317090
0
LINE
8
Layer 1
10
31.396600
20
46.912800
11
31.741402
21
50.848990
0
LINE
8
Layer 1
10
35.332800
20
46.568000
11
31.396610
21
46.912802
0
LINE
8
Layer 1
10
35.677600
20
50.504200
11
35.332798
21
46.568010
0
LINE
8
Layer 1
10
31.741400
20
50.849000
11
35.677590
21
50.504198
0
LINE
8
Layer 1
10
41.574300
20
50.377400
11
45.509770
21
50.722202
0
LINE
8
Layer 1
10
45.509800
20
50.722200
11
45.854602
21
46.786010
0
LINE
8
Layer 1
10
45.854600
20
46.786000
11
41.918410
21
46.441198
0
LINE
8
Layer 1
10
41.918400
20
46.441200
11
41.574315
21
50.377390
0
LINE
8
Layer 1
10
47.274000
20
46.910000
11
46.929915
21
50.846190
0
LINE
8
Layer 1
10
51.210200
20
47.254100
11
47.274010
21
46.910015
0
LINE
8
Layer 1
10
50.866100
20
51.190300
11
51.210185
21
47.254110
0
LINE
8
Layer 1
10
46.929900
20
50.846200
11
50.866090
21
51.190285
0
LINE
8
Layer 1
10
52.285400
20
51.314300
11
56.221590
21
51.658385
0
LINE
8
Layer 1
10
56.221600
20
51.658400
11
56.566402
21
47.722930
0
LINE
8
Layer 1
10
56.566400
20
47.722900
11
52.630210
21
47.378815
0
LINE
8
Layer 1
10
52.630200
20
47.378800
11
52.285398
21
51.314270
0
LINE
8
Layer 1
10
57.985800
20
47.846900
11
57.641715
21
51.782370
0
LINE
8
Layer 1
10
61.922000
20
48.191700
11
57.985810
21
47.846898
0
LINE
8
Layer 1
10
61.577900
20
52.127200
11
61.921985
21
48.191730
0
LINE
8
Layer 1
10
57.641700
20
51.782400
11
61.577890
21
52.127202
0
LINE
8
Layer 1
10
64.054600
20
52.208200
11
68.005100
21
52.208200
0
LINE
8
Layer 1
10
68.005100
20
52.208200
11
68.005100
21
48.258400
0
LINE
8
Layer 1
10
68.005100
20
48.258400
11
64.054600
21
48.258400
0
LINE
8
Layer 1
10
64.054600
20
48.258400
11
64.054600
21
52.208200
0
LINE
8
Layer 1
10
70.775000
20
48.258400
11
70.775000
21
52.208200
0
LINE
8
Layer 1
10
74.725500
20
48.258400
11
70.775000
21
48.258400
0
LINE
8
Layer 1
10
74.725500
20
52.208200
11
74.725500
21
48.258400
0
LINE
8
Layer 1
10
70.775000
20
52.208200
11
74.725500
21
52.208200
0
LINE
8
Layer 1
10
3.436820
20
46.832600
11
7.387340
21
46.832600
0
LINE
8
Layer 1
10
7.387340
20
46.832600
11
7.387340
21
42.882000
0
LINE
8
Layer 1
10
7.387340
20
42.882000
11
3.436820
21
42.882000
0
LINE
8
Layer 1
10
3.436820
20
42.882000
11
3.436820
21
46.832600
0
LINE
8
Layer 1
10
10.291300
20
42.882000
11
10.291300
21
46.832600
0
LINE
8
Layer 1
10
14.241800
20
42.882000
11
10.291300
21
42.882000
0
LINE
8
Layer 1
10
14.241800
20
46.832600
11
14.241800
21
42.882000
0
LINE
8
Layer 1
10
10.291300
20
46.832600
11
14.241800
21
46.832600
0
LINE
8
Layer 1
10
16.544300
20
46.781700
11
20.479770
21
46.436898
0
LINE
8
Layer 1
10
20.479800
20
46.436900
11
20.135715
21
42.501430
0
LINE
8
Layer 1
10
20.135700
20
42.501400
11
16.199510
21
42.845485
0
LINE
8
Layer 1
10
16.199500
20
42.845500
11
16.544302
21
46.781690
0
LINE
8
Layer 1
10
21.555800
20
42.376700
11
21.899885
21
46.312890
0
LINE
8
Layer 1
10
25.491200
20
42.032600
11
21.555730
21
42.376685
0
LINE
8
Layer 1
10
25.836000
20
45.968800
11
25.491198
21
42.032610
0
LINE
8
Layer 1
10
21.899800
20
46.312900
11
25.835990
21
45.968815
0
LINE
8
Layer 1
10
27.255400
20
45.844000
11
31.191590
21
45.499915
0
LINE
8
Layer 1
10
31.191600
20
45.500000
11
30.847515
21
41.563810
0
LINE
8
Layer 1
10
30.847500
20
41.563800
11
26.911300
21
41.908600
0
LINE
8
Layer 1
10
26.911300
20
41.908600
11
27.255385
21
45.844070
0
LINE
8
Layer 1
10
32.267600
20
41.439700
11
32.611685
21
45.375890
0
LINE
8
Layer 1
10
36.203000
20
41.095700
11
32.267530
21
41.439785
0
LINE
8
Layer 1
10
36.547800
20
45.031100
11
36.202998
21
41.095630
0
LINE
8
Layer 1
10
32.611600
20
45.375900
11
36.547790
21
45.031098
0
LINE
8
Layer 1
10
43.381500
20
45.138700
11
47.317690
21
45.482785
0
LINE
8
Layer 1
10
47.317700
20
45.482700
11
47.661785
21
41.547230
0
LINE
8
Layer 1
10
47.661800
20
41.547300
11
43.725610
21
41.202498
0
LINE
8
Layer 1
10
43.725600
20
41.202500
11
43.381515
21
45.138690
0
LINE
8
Layer 1
10
49.081900
20
41.671300
11
48.737815
21
45.607490
0
LINE
8
Layer 1
10
53.018000
20
42.015400
11
49.081810
21
41.671315
0
LINE
8
Layer 1
10
52.673200
20
45.951600
11
53.018002
21
42.015410
0
LINE
8
Layer 1
10
48.737800
20
45.607500
11
52.673270
21
45.951585
0
LINE
8
Layer 1
10
54.093300
20
46.075600
11
58.029490
21
46.420402
0
LINE
8
Layer 1
10
58.029500
20
46.420400
11
58.373585
21
42.484210
0
LINE
8
Layer 1
10
58.373600
20
42.484200
11
54.437410
21
42.140115
0
LINE
8
Layer 1
10
54.437400
20
42.140100
11
54.093315
21
46.075570
0
LINE
8
Layer 1
10
59.793600
20
42.608200
11
59.448798
21
46.544390
0
LINE
8
Layer 1
10
63.729800
20
42.953000
11
59.793610
21
42.608198
0
LINE
8
Layer 1
10
63.385000
20
46.888500
11
63.729802
21
42.953030
0
LINE
8
Layer 1
10
59.448800
20
46.544400
11
63.384990
21
46.888485
0
LINE
8
Layer 1
10
65.667500
20
46.832600
11
69.618000
21
46.832600
0
LINE
8
Layer 1
10
69.618000
20
46.832600
11
69.618000
21
42.882000
0
LINE
8
Layer 1
10
69.618000
20
42.882000
11
65.667500
21
42.882000
0
LINE
8
Layer 1
10
65.667500
20
42.882000
11
65.667500
21
46.832600
0
LINE
8
Layer 1
10
71.715500
20
42.882000
11
71.715500
21
46.832600
0
LINE
8
Layer 1
10
75.666700
20
42.882000
11
71.715500
21
42.882000
0
LINE
8
Layer 1
10
75.666700
20
46.832600
11
75.666700
21
42.882000
0
LINE
8
Layer 1
10
71.715500
20
46.832600
11
75.666700
21
46.832600
0
LINE
8
Layer 1
10
4.109220
20
41.456200
11
8.059740
21
41.456200
0
LINE
8
Layer 1
10
8.059740
20
41.456200
11
8.059740
21
37.505700
0
LINE
8
Layer 1
10
8.059740
20
37.505700
11
4.109220
21
37.505700
0
LINE
8
Layer 1
10
4.109220
20
37.505700
11
4.109220
21
41.456200
0
LINE
8
Layer 1
10
11.635400
20
37.505700
11
11.635400
21
41.456200
0
LINE
8
Layer 1
10
15.585900
20
37.505700
11
11.635400
21
37.505700
0
LINE
8
Layer 1
10
15.585900
20
41.456200
11
15.585900
21
37.505700
0
LINE
8
Layer 1
10
11.635400
20
41.456200
11
15.585900
21
41.456200
0
LINE
8
Layer 1
10
17.950000
20
41.261300
11
21.886190
21
40.917215
0
LINE
8
Layer 1
10
21.886200
20
40.917200
11
21.541398
21
36.981010
0
LINE
8
Layer 1
10
21.541400
20
36.981000
11
17.605210
21
37.325802
0
LINE
8
Layer 1
10
17.605200
20
37.325800
11
17.950002
21
41.261270
0
LINE
8
Layer 1
10
22.961500
20
36.857000
11
23.305585
21
40.793190
0
LINE
8
Layer 1
10
26.897700
20
36.512900
11
22.961510
21
36.856985
0
LINE
8
Layer 1
10
27.241800
20
40.448400
11
26.897715
21
36.512930
0
LINE
8
Layer 1
10
23.305600
20
40.793200
11
27.241790
21
40.448398
0
LINE
8
Layer 1
10
28.661800
20
40.324300
11
32.597990
21
39.980215
0
LINE
8
Layer 1
10
32.598000
20
39.980300
11
32.253198
21
36.044110
0
LINE
8
Layer 1
10
32.253200
20
36.044100
11
28.317010
21
36.388185
0
LINE
8
Layer 1
10
28.317000
20
36.388100
11
28.661802
21
40.324290
0
LINE
8
Layer 1
10
33.673300
20
35.920000
11
34.017385
21
39.855470
0
LINE
8
Layer 1
10
37.609500
20
35.575200
11
33.673310
21
35.920002
0
LINE
8
Layer 1
10
37.953600
20
39.511400
11
37.609515
21
35.575210
0
LINE
8
Layer 1
10
34.017400
20
39.855500
11
37.953590
21
39.511415
0
LINE
8
Layer 1
10
39.833100
20
39.431200
11
43.769290
21
39.776002
0
LINE
8
Layer 1
10
43.769300
20
39.776000
11
44.113385
21
35.839810
0
LINE
8
Layer 1
10
44.113400
20
35.839800
11
40.177210
21
35.495715
0
LINE
8
Layer 1
10
40.177200
20
35.495700
11
39.833115
21
39.431170
0
LINE
8
Layer 1
10
45.533500
20
35.963800
11
45.189415
21
39.899990
0
LINE
8
Layer 1
10
49.469700
20
36.308600
11
45.533510
21
35.963798
0
LINE
8
Layer 1
10
49.124900
20
40.244100
11
49.469702
21
36.308630
0
LINE
8
Layer 1
10
45.189400
20
39.900000
11
49.124870
21
40.244085
0
LINE
8
Layer 1
10
50.544900
20
40.368800
11
54.481090
21
40.712885
0
LINE
8
Layer 1
10
54.481100
20
40.712900
11
54.825185
21
36.776710
0
LINE
8
Layer 1
10
54.825200
20
36.776700
11
50.889010
21
36.432615
0
LINE
8
Layer 1
10
50.889000
20
36.432600
11
50.544915
21
40.368790
0
LINE
8
Layer 1
10
56.245300
20
36.901400
11
55.900498
21
40.836870
0
LINE
8
Layer 1
10
60.181500
20
37.245500
11
56.245310
21
36.901415
0
LINE
8
Layer 1
10
59.836700
20
41.181700
11
60.181502
21
37.245510
0
LINE
8
Layer 1
10
55.900500
20
40.836900
11
59.836690
21
41.181702
0
LINE
8
Layer 1
10
62.710500
20
41.187400
11
66.661000
21
41.187400
0
LINE
8
Layer 1
10
66.661000
20
41.187400
11
66.661000
21
37.236900
0
LINE
8
Layer 1
10
66.661000
20
37.236900
11
62.710500
21
37.236900
0
LINE
8
Layer 1
10
62.710500
20
37.236900
11
62.710500
21
41.187400
0
LINE
8
Layer 1
10
70.102600
20
37.236900
11
70.102600
21
41.187400
0
LINE
8
Layer 1
10
74.053800
20
37.236900
11
70.102600
21
37.236900
0
LINE
8
Layer 1
10
74.053800
20
41.187400
11
74.053800
21
37.236900
0
LINE
8
Layer 1
10
70.102600
20
41.187400
11
74.053800
21
41.187400
0
LINE
8
Layer 1
10
76.726900
20
36.068400
11
76.904677
21
36.226320
0
LINE
8
Layer 1
10
1.650440
20
36.638300
11
1.808375
21
36.460808
0
LINE
8
Layer 1
10
1.829650
20
53.344400
11
1.650403
21
53.161605
0
LINE
8
Layer 1
10
76.904700
20
53.203400
11
76.728876
21
53.407051
0
LINE
8
Layer 1
10
31.381500
20
53.019600
11
19.858300
21
53.019600
0
LINE
8
Layer 1
10
14.650400
20
53.344400
11
19.858270
21
53.019670
0
LINE
8
Layer 1
10
1.829650
20
53.344400
11
14.650400
21
53.344400
0
LINE
8
Layer 1
10
1.650440
20
36.639000
11
1.650440
21
53.161600
0
LINE
8
Layer 1
10
38.959300
20
32.231200
11
1.808870
21
36.461300
0
LINE
8
Layer 1
10
76.726900
20
36.068400
11
38.959300
21
32.231200
0
LINE
8
Layer 1
10
76.904700
20
53.203200
11
76.904700
21
36.226900
0
LINE
8
Layer 1
10
-1004.710000
20
-1015.720000
11
-1004.724393
21
708.370000
0
LINE
8
Layer 1
10
28623.000000
20
-1014.310000
11
28623.000000
21
733.777000
0
LINE
8
Layer 1
10
28552.400000
20
-1086.550000
11
28556.051496
21
-1086.386464
0
LINE
8
Layer 1
10
28556.051496
20
-1086.386464
11
28559.652787
21
-1086.044323
0
LINE
8
Layer 1
10
28559.652787
20
-1086.044323
11
28563.199559
21
-1085.527976
0
LINE
8
Layer 1
10
28563.199559
20
-1085.527976
11
28566.687501
21
-1084.841825
0
LINE
8
Layer 1
10
28566.687501
20
-1084.841825
11
28570.112299
21
-1083.990270
0
LINE
8
Layer 1
10
28570.112299
20
-1083.990270
11
28573.469641
21
-1082.977712
0
LINE
8
Layer 1
10
28573.469641
20
-1082.977712
11
28576.755215
21
-1081.808550
0
LINE
8
Layer 1
10
28576.755215
20
-1081.808550
11
28579.964707
21
-1080.487187
0
LINE
8
Layer 1
10
28579.964707
20
-1080.487187
11
28583.093806
21
-1079.018021
0
LINE
8
Layer 1
10
28583.093806
20
-1079.018021
11
28586.138199
21
-1077.405455
0
LINE
8
Layer 1
10
28586.138199
20
-1077.405455
11
28589.093572
21
-1075.653888
0
LINE
8
Layer 1
10
28589.093572
20
-1075.653888
11
28591.955615
21
-1073.767720
0
LINE
8
Layer 1
10
28591.955615
20
-1073.767720
11
28594.720013
21
-1071.751353
0
LINE
8
Layer 1
10
28594.720013
20
-1071.751353
11
28597.382455
21
-1069.609188
0
LINE
8
Layer 1
10
28597.382455
20
-1069.609188
11
28599.938628
21
-1067.345623
0
LINE
8
Layer 1
10
28599.938628
20
-1067.345623
11
28602.384219
21
-1064.965061
0
LINE
8
Layer 1
10
28602.384219
20
-1064.965061
11
28604.714915
21
-1062.471902
0
LINE
8
Layer 1
10
28604.714915
20
-1062.471902
11
28606.926405
21
-1059.870545
0
LINE
8
Layer 1
10
28606.926405
20
-1059.870545
11
28609.014376
21
-1057.165393
0
LINE
8
Layer 1
10
28609.014376
20
-1057.165393
11
28610.974514
21
-1054.360844
0
LINE
8
Layer 1
10
28610.974514
20
-1054.360844
11
28612.802508
21
-1051.461301
0
LINE
8
Layer 1
10
28612.802508
20
-1051.461301
11
28614.494044
21
-1048.471163
0
LINE
8
Layer 1
10
28614.494044
20
-1048.471163
11
28616.044811
21
-1045.394831
0
LINE
8
Layer 1
10
28616.044811
20
-1045.394831
11
28617.450496
21
-1042.236705
0
LINE
8
Layer 1
10
28617.450496
20
-1042.236705
11
28618.706786
21
-1039.001186
0
LINE
8
Layer 1
10
28618.706786
20
-1039.001186
11
28619.809368
21
-1035.692675
0
LINE
8
Layer 1
10
28619.809368
20
-1035.692675
11
28620.753930
21
-1032.315573
0
LINE
8
Layer 1
10
28620.753930
20
-1032.315573
11
28621.536160
21
-1028.874278
0
LINE
8
Layer 1
10
28621.536160
20
-1028.874278
11
28622.151744
21
-1025.373194
0
LINE
8
Layer 1
10
28622.151744
20
-1025.373194
11
28622.596370
21
-1021.816719
0
LINE
8
Layer 1
10
28622.596370
20
-1021.816719
11
28622.865727
21
-1018.209254
0
LINE
8
Layer 1
10
28622.865727
20
-1018.209254
11
28622.955500
21
-1014.555200
0
LINE
8
Layer 1
10
-932.461000
20
-1086.550000
11
28552.400000
21
-1086.550000
0
LINE
8
Layer 1
10
-1004.710000
20
-1015.980000
11
-1004.547165
21
-1019.632045
0
LINE
8
Layer 1
10
-1004.547165
20
-1019.632045
11
-1004.205665
21
-1023.233899
0
LINE
8
Layer 1
10
-1004.205665
20
-1023.233899
11
-1003.689904
21
-1026.781248
0
LINE
8
Layer 1
10
-1003.689904
20
-1026.781248
11
-1003.004283
21
-1030.269776
0
LINE
8
Layer 1
10
-1003.004283
20
-1030.269776
11
-1002.153203
21
-1033.695170
0
LINE
8
Layer 1
10
-1002.153203
20
-1033.695170
11
-1001.141066
21
-1037.053115
0
LINE
8
Layer 1
10
-1001.141066
20
-1037.053115
11
-999.972274
21
-1040.339296
0
LINE
8
Layer 1
10
-999.972274
20
-1040.339296
11
-998.651230
21
-1043.549398
0
LINE
8
Layer 1
10
-998.651230
20
-1043.549398
11
-997.182334
21
-1046.679106
0
LINE
8
Layer 1
10
-997.182334
20
-1046.679106
11
-995.569989
21
-1049.724106
0
LINE
8
Layer 1
10
-995.569989
20
-1049.724106
11
-993.818597
21
-1052.680084
0
LINE
8
Layer 1
10
-993.818597
20
-1052.680084
11
-991.932558
21
-1055.542723
0
LINE
8
Layer 1
10
-991.932558
20
-1055.542723
11
-989.916276
21
-1058.307711
0
LINE
8
Layer 1
10
-989.916276
20
-1058.307711
11
-987.774152
21
-1060.970731
0
LINE
8
Layer 1
10
-987.774152
20
-1060.970731
11
-985.510588
21
-1063.527470
0
LINE
8
Layer 1
10
-985.510588
20
-1063.527470
11
-983.129985
21
-1065.973613
0
LINE
8
Layer 1
10
-983.129985
20
-1065.973613
11
-980.636745
21
-1068.304845
0
LINE
8
Layer 1
10
-980.636745
20
-1068.304845
11
-978.035271
21
-1070.516850
0
LINE
8
Layer 1
10
-978.035271
20
-1070.516850
11
-975.329964
21
-1072.605316
0
LINE
8
Layer 1
10
-975.329964
20
-1072.605316
11
-972.525226
21
-1074.565926
0
LINE
8
Layer 1
10
-972.525226
20
-1074.565926
11
-969.625458
21
-1076.394366
0
LINE
8
Layer 1
10
-969.625458
20
-1076.394366
11
-966.635063
21
-1078.086322
0
LINE
8
Layer 1
10
-966.635063
20
-1078.086322
11
-963.558442
21
-1079.637479
0
LINE
8
Layer 1
10
-963.558442
20
-1079.637479
11
-960.399997
21
-1081.043522
0
LINE
8
Layer 1
10
-960.399997
20
-1081.043522
11
-957.164131
21
-1082.300136
0
LINE
8
Layer 1
10
-957.164131
20
-1082.300136
11
-953.855244
21
-1083.403007
0
LINE
8
Layer 1
10
-953.855244
20
-1083.403007
11
-950.477738
21
-1084.347820
0
LINE
8
Layer 1
10
-950.477738
20
-1084.347820
11
-947.036017
21
-1085.130260
0
LINE
8
Layer 1
10
-947.036017
20
-1085.130260
11
-943.534480
21
-1085.746013
0
LINE
8
Layer 1
10
-943.534480
20
-1085.746013
11
-939.977531
21
-1086.190764
0
LINE
8
Layer 1
10
-939.977531
20
-1086.190764
11
-936.369570
21
-1086.460198
0
LINE
8
Layer 1
10
-936.369570
20
-1086.460198
11
-932.715000
21
-1086.550000
0
LINE
8
Layer 1
10
10811.400000
20
3477.820000
11
-944.033000
21
780.344000
0
LINE
8
Layer 1
10
-196.825000
20
107.294000
11
-196.979158
21
107.111205
0
LINE
8
Layer 1
10
-121.724000
20
107.153000
11
-121.870953
21
107.344197
0
LINE
8
Layer 1
10
-152.023000
20
114.145000
11
-121.871100
21
107.343590
0
LINE
8
Layer 1
10
-166.966000
20
114.145000
11
-152.023000
21
114.145000
 0 
ENDSEC
 0 
EOF